<svg width="27" height="27" viewBox="0 0 27 27" fill="none" xmlns="http://www.w3.org/2000/svg">
<path d="M18 3.90123C19.6669 4.72962 20.8125 6.44978 20.8125 8.4375C20.8125 10.4252 19.6669 12.1454 18 12.9737M20.25 18.8622C21.9504 19.6316 23.4816 20.8856 24.75 22.5M2.25 22.5C4.4398 19.7129 7.41283 18 10.6875 18C13.9621 18 16.9352 19.7129 19.125 22.5M15.75 8.4375C15.75 11.2334 13.4835 13.5 10.6875 13.5C7.89156 13.5 5.625 11.2334 5.625 8.4375C5.625 5.64156 7.89156 3.375 10.6875 3.375C13.4835 3.375 15.75 5.64156 15.75 8.4375Z" stroke="#168BD9" stroke-width="2" stroke-linecap="round" stroke-linejoin="round"/>
</svg>
